<svg width="32" height="32" viewBox="0 0 32 32" fill="none" xmlns="http://www.w3.org/2000/svg">
<path d="M11.7576 28.0002C11.2055 28.0002 10.7361 27.8002 10.3494 27.4005C9.96267 27.001 9.76929 26.516 9.76929 25.9457C9.76929 25.3752 9.96267 24.8901 10.3494 24.4906C10.7361 24.0911 11.2055 23.8913 11.7576 23.8913C12.3099 23.8913 12.7794 24.0911 13.1661 24.4906C13.5528 24.8901 13.7462 25.3752 13.7462 25.9457C13.7462 26.516 13.5528 27.001 13.1661 27.4005C12.7794 27.8002 12.3099 28.0002 11.7576 28.0002ZM22.7716 28.0002C22.2193 28.0002 21.7499 27.8002 21.3631 27.4005C20.9764 27.001 20.783 26.516 20.783 25.9457C20.783 25.3752 20.9764 24.8901 21.3631 24.4906C21.7499 24.0911 22.2193 23.8913 22.7716 23.8913C23.3237 23.8913 23.7931 24.0911 24.1798 24.4906C24.5665 24.8901 24.7599 25.3752 24.7599 25.9457C24.7599 26.516 24.5665 27.001 24.1798 27.4005C23.7931 27.8002 23.3237 28.0002 22.7716 28.0002ZM10.4639 9.44238L13.3442 15.6735H21.0909C21.1565 15.6735 21.2148 15.6566 21.2659 15.6227C21.3169 15.5889 21.3606 15.5418 21.3969 15.4816L24.4454 9.75847C24.4892 9.67571 24.4928 9.60233 24.4562 9.53835C24.4198 9.47437 24.3579 9.44238 24.2704 9.44238H10.4639ZM9.64685 7.68143H25.4244C25.8891 7.68143 26.2406 7.88579 26.4787 8.29454C26.717 8.70308 26.7283 9.12032 26.5128 9.54628L22.8719 16.3597C22.6856 16.6984 22.4391 16.9622 22.1324 17.1509C21.8256 17.34 21.4894 17.4345 21.1239 17.4345H12.8329L11.5173 19.9176C11.4589 20.008 11.4571 20.1059 11.5119 20.2111C11.5664 20.3167 11.6483 20.3694 11.7576 20.3694H24.7599V22.1303H11.7576C11 22.1303 10.4308 21.7928 10.05 21.1178C9.66892 20.4427 9.65547 19.7688 10.0096 19.0959L11.6309 16.0844L7.49661 7.09445H5.33301V5.3335H8.56733L9.64685 7.68143Z" fill="#E2E2E2"/>
</svg>
