<svg width="24" height="25" viewBox="0 0 24 25" fill="none" xmlns="http://www.w3.org/2000/svg">
<path d="M17.2115 19.5C16.4307 19.5 15.7708 19.2254 15.2317 18.676C14.6927 18.1265 14.4231 17.454 14.4231 16.6584C14.4231 15.8626 14.6927 15.1901 15.2317 14.6407C15.7708 14.0913 16.4307 13.8165 17.2115 13.8165C17.9923 13.8165 18.6522 14.0913 19.1912 14.6407C19.7304 15.1901 20 15.8626 20 16.6584C20 17.454 19.7304 18.1265 19.1912 18.676C18.6522 19.2254 17.9923 19.5 17.2115 19.5ZM17.2107 18.2261C17.6353 18.2261 17.9981 18.0732 18.2989 17.7673C18.5997 17.4613 18.75 17.0919 18.75 16.6592C18.75 16.2264 18.5998 15.8567 18.2996 15.5501C17.9994 15.2437 17.637 15.0904 17.2122 15.0904C16.7876 15.0904 16.4248 15.2434 16.1242 15.5494C15.8235 15.8553 15.6731 16.2247 15.6731 16.6575C15.6731 17.0904 15.8232 17.46 16.1233 17.7664C16.4236 18.0729 16.7861 18.2261 17.2107 18.2261ZM6.25 17.2953V16.0214H12.5963V17.2953H6.25ZM7.78854 12.1834C7.00771 12.1834 6.34777 11.9087 5.80875 11.3592C5.26958 10.8099 5 10.1374 5 9.34161C5 8.546 5.26958 7.87346 5.80875 7.32399C6.34777 6.77467 7.00771 6.5 7.78854 6.5C8.56923 6.5 9.22917 6.77467 9.76833 7.32399C10.3074 7.87346 10.5769 8.546 10.5769 9.34161C10.5769 10.1374 10.3074 10.8099 9.76833 11.3592C9.22917 11.9087 8.56923 12.1834 7.78854 12.1834ZM7.78771 10.9096C8.21243 10.9096 8.57514 10.7565 8.87583 10.4505C9.17653 10.1447 9.32688 9.7753 9.32688 9.34246C9.32688 8.90962 9.17681 8.53999 8.87667 8.23354C8.57639 7.92711 8.21396 7.77388 7.78937 7.77388C7.36465 7.77388 7.00188 7.92683 6.70104 8.2327C6.40035 8.53872 6.25 8.90807 6.25 9.34076C6.25 9.7736 6.40014 10.1433 6.70042 10.4499C7.00056 10.7563 7.36298 10.9096 7.78771 10.9096ZM12.4037 9.97855V8.70467H18.75V9.97855H12.4037Z" fill="#FBFBFB"/>
</svg>
