<svg width="32" height="32" viewBox="0 0 32 32" fill="none" xmlns="http://www.w3.org/2000/svg">
<mask id="mask0_2249_236" style="mask-type:alpha" maskUnits="userSpaceOnUse" x="0" y="0" width="32" height="32">
<rect width="32" height="32" fill="#D9D9D9"/>
</mask>
<g mask="url(#mask0_2249_236)">
<path d="M16 27.2625C12.7777 27.2625 10.0951 26.8147 7.95197 25.9191C5.80886 25.0234 4.7373 23.8964 4.7373 22.5381V9.33314C4.7373 8.06825 5.83708 6.98491 8.03664 6.08314C10.2362 5.18136 12.8906 4.73047 16 4.73047C19.1024 4.73047 21.7563 5.18136 23.9616 6.08314C26.1667 6.98491 27.2693 8.06825 27.2693 9.33314V22.5381C27.2693 23.8895 26.1939 25.0147 24.043 25.9138C21.8921 26.8129 19.2111 27.2625 16 27.2625ZM16 11.7921C17.8966 11.7921 19.8175 11.5246 21.7626 10.9895C23.708 10.4546 24.891 9.86914 25.3116 9.23314C24.8996 8.58025 23.727 7.97747 21.7936 7.4248C19.8603 6.87214 17.9291 6.5958 16 6.5958C14.0633 6.5958 12.1327 6.86269 10.2083 7.39647C8.28386 7.93025 7.10419 8.52536 6.6693 9.1818C7.10264 9.85958 8.27375 10.4641 10.1826 10.9955C12.0915 11.5266 14.0306 11.7921 16 11.7921ZM16 18.5715C16.9 18.5759 17.7875 18.5337 18.6626 18.4448C19.538 18.3559 20.3777 18.2249 21.182 18.0518C21.9862 17.8787 22.7463 17.6684 23.4623 17.4208C24.1781 17.1735 24.8253 16.89 25.404 16.5705V11.5268C24.8253 11.8575 24.1809 12.1538 23.4706 12.4158C22.7602 12.6778 22.0019 12.8987 21.1956 13.0785C20.3892 13.2585 19.5494 13.3929 18.6763 13.4818C17.8032 13.5707 16.9111 13.6151 16 13.6151C15.076 13.6151 14.1691 13.5686 13.2793 13.4755C12.3897 13.3824 11.5422 13.2458 10.7366 13.0658C9.93108 12.8858 9.17864 12.667 8.4793 12.4095C7.78019 12.1517 7.15464 11.8575 6.60264 11.5268V16.5705C7.16575 16.8789 7.79864 17.1575 8.5013 17.4061C9.20375 17.6548 9.95775 17.8657 10.7633 18.0388C11.5689 18.2119 12.4137 18.344 13.298 18.4351C14.1822 18.526 15.0829 18.5715 16 18.5715ZM16 25.3971C17.082 25.3971 18.1489 25.3241 19.2006 25.1781C20.2524 25.0319 21.2084 24.8336 22.0686 24.5831C22.9289 24.3327 23.6571 24.0397 24.2533 23.7041C24.8493 23.3688 25.2329 23.0195 25.404 22.6561V18.4458C24.8253 18.7587 24.1781 19.0406 23.4623 19.2915C22.7463 19.5424 21.9845 19.7526 21.177 19.9221C20.3692 20.0919 19.5294 20.2212 18.6576 20.3101C17.7859 20.399 16.9 20.4412 16 20.4368C15.076 20.4368 14.1691 20.3914 13.2793 20.3005C12.3897 20.2094 11.5439 20.0784 10.7416 19.9075C9.93941 19.7366 9.18708 19.5274 8.48464 19.2798C7.78197 19.0325 7.15464 18.7511 6.60264 18.4358V22.6768C6.77353 23.0486 7.14975 23.3966 7.7313 23.7208C8.31308 24.0452 9.03408 24.3327 9.8943 24.5831C10.7545 24.8336 11.7122 25.0319 12.7673 25.1781C13.8224 25.3241 14.9 25.3971 16 25.3971Z" fill="url(#paint0_linear_2249_236)"/>
</g>
<defs>
<linearGradient id="paint0_linear_2249_236" x1="16.0033" y1="4.73047" x2="16.0033" y2="27.2625" gradientUnits="userSpaceOnUse">
<stop stop-color="#8069F6"/>
<stop offset="1" stop-color="#4B3D90"/>
</linearGradient>
</defs>
</svg>
