<svg width="32" height="32" viewBox="0 0 32 32" fill="none" xmlns="http://www.w3.org/2000/svg">
<mask id="mask0_2249_252" style="mask-type:alpha" maskUnits="userSpaceOnUse" x="0" y="0" width="32" height="32">
<rect width="32" height="32" fill="#D9D9D9"/>
</mask>
<g mask="url(#mask0_2249_252)">
<path d="M16.0005 28.3977C14.2876 28.3977 12.6769 28.0715 11.1682 27.419C9.65954 26.7664 8.34709 25.8812 7.23087 24.7637C6.11443 23.6461 5.23065 22.3341 4.57954 20.8277C3.92821 19.3212 3.60254 17.7124 3.60254 16.001C3.60254 14.2881 3.92876 12.6774 4.58121 11.1687C5.23387 9.66003 6.11898 8.34758 7.23654 7.23136C8.35409 6.11492 9.66609 5.23114 11.1725 4.58003C12.679 3.92869 14.2879 3.60303 15.9992 3.60303C17.7121 3.60303 19.3229 3.92925 20.8315 4.58169C22.3402 5.23436 23.6526 6.11947 24.7689 7.23703C25.8853 8.35458 26.7691 9.66658 27.4202 11.173C28.0715 12.6795 28.3972 14.2884 28.3972 15.9997C28.3972 17.7126 28.071 19.3234 27.4185 20.832C26.7659 22.3407 25.8808 23.6531 24.7632 24.7694C23.6456 25.8858 22.3336 26.7696 20.8272 27.4207C19.3208 28.072 17.7119 28.3977 16.0005 28.3977ZM15.0705 26.481V24.5197C14.2356 24.4355 13.4433 24.2331 12.6935 23.9127C11.944 23.5925 11.2589 23.1837 10.6382 22.6864L9.24087 24.081C10.0382 24.7528 10.9306 25.2992 11.9182 25.7204C12.9058 26.1413 13.9565 26.3948 15.0705 26.481ZM16.9359 26.481C18.0485 26.3957 19.0958 26.1418 20.0775 25.7194C21.0591 25.2971 21.9508 24.751 22.7525 24.081L21.3679 22.6864C20.7439 23.1819 20.0565 23.5904 19.3059 23.9117C18.5552 24.2332 17.7652 24.4351 16.9359 24.5174V26.481ZM16.0015 22.712C17.8611 22.712 19.4453 22.058 20.7542 20.75C22.0633 19.442 22.7179 17.8582 22.7179 15.9987C22.7179 14.1391 22.0634 12.5549 20.7545 11.246C19.4457 9.93692 17.8609 9.28236 16.0002 9.28236C14.1393 9.28236 12.5554 9.9368 11.2485 11.2457C9.94165 12.5546 9.28821 14.1394 9.28821 16C9.28821 17.8609 9.94221 19.4448 11.2502 20.7517C12.5582 22.0586 14.142 22.712 16.0015 22.712ZM24.0702 22.7594C24.7469 21.9571 25.296 21.063 25.7175 20.077C26.1391 19.0912 26.3956 18.0421 26.4872 16.9297H24.5175C24.4349 17.7635 24.2328 18.5557 23.9112 19.3064C23.5899 20.057 23.178 20.7423 22.6755 21.362L24.0702 22.7594ZM7.91921 22.7594L9.31387 21.358C8.81654 20.7374 8.40776 20.0539 8.08754 19.3077C7.76709 18.5612 7.56476 17.7686 7.48054 16.9297H5.51921C5.60454 18.0468 5.85787 19.0984 6.27921 20.0844C6.70076 21.0704 7.24743 21.962 7.91921 22.7594ZM15.9999 20.7874L12.4062 16.0004L15.9999 11.2134L19.5869 16.0004L15.9999 20.7874ZM5.51921 15.0644H7.48054C7.56432 14.231 7.76698 13.4407 8.08854 12.6934C8.40987 11.9458 8.81832 11.2632 9.31387 10.6457L7.91921 9.24769C7.24921 10.0495 6.70343 10.9419 6.28187 11.925C5.86032 12.9084 5.60609 13.9548 5.51921 15.0644ZM24.5175 15.0644H26.4872C26.3974 13.9548 26.1408 12.9084 25.7172 11.925C25.2936 10.9419 24.7413 10.0495 24.0602 9.24769L22.6755 10.6324C23.178 11.2564 23.5899 11.9437 23.9112 12.6944C24.2328 13.445 24.4349 14.235 24.5175 15.0644ZM10.6422 9.32469C11.2618 8.82225 11.9449 8.41047 12.6915 8.08936C13.4384 7.76825 14.2314 7.56547 15.0705 7.48103V5.51303C13.9534 5.6028 12.9026 5.85869 11.9182 6.28069C10.934 6.70291 10.0415 7.25269 9.24087 7.93003L10.6422 9.32469ZM21.3679 9.32469L22.7525 7.94003C21.9508 7.25892 21.0583 6.70658 20.0752 6.28303C19.0919 5.85947 18.0454 5.6028 16.9359 5.51303V7.48269C17.7652 7.56536 18.5552 7.76747 19.3059 8.08903C20.0565 8.41036 20.7439 8.82225 21.3679 9.32469Z" fill="#E2E2E2"/>
</g>
</svg>
