<svg width="16" height="16" viewBox="0 0 16 16" fill="none" xmlns="http://www.w3.org/2000/svg">
<circle cx="8" cy="8" r="8" fill="url(#paint0_linear_2343_255)"/>
<path fill-rule="evenodd" clip-rule="evenodd" d="M8 14C11.3137 14 14 11.3137 14 8C14 4.68629 11.3137 2 8 2C4.68629 2 2 4.68629 2 8C2 11.3137 4.68629 14 8 14ZM8 15C11.866 15 15 11.866 15 8C15 4.13401 11.866 1 8 1C4.13401 1 1 4.13401 1 8C1 11.866 4.13401 15 8 15Z" fill="#080918"/>
<path d="M7.91213 11.0803C7.40546 11.0803 6.96279 11.003 6.58413 10.8483C6.20546 10.6883 5.90679 10.4483 5.68813 10.1283C5.47479 9.80831 5.35746 9.40298 5.33613 8.91231C5.33079 8.69365 5.32812 8.45898 5.32812 8.20831C5.32812 7.95765 5.33079 7.71765 5.33613 7.48831C5.35746 7.00831 5.47746 6.60831 5.69613 6.28831C5.92013 5.96298 6.22146 5.72031 6.60013 5.56031C6.98413 5.40031 7.42146 5.32031 7.91213 5.32031C8.26413 5.32031 8.59212 5.36298 8.89613 5.44831C9.20546 5.52831 9.48012 5.65365 9.72013 5.82431C9.96013 5.98965 10.1495 6.19765 10.2881 6.44831C10.4268 6.69365 10.4988 6.98165 10.5041 7.31231C10.5041 7.36031 10.4855 7.40031 10.4481 7.43231C10.4161 7.46431 10.3761 7.48031 10.3281 7.48031H8.97613C8.89613 7.48031 8.83746 7.46431 8.80013 7.43231C8.76279 7.40031 8.73079 7.34431 8.70413 7.26431C8.63479 7.03498 8.53346 6.88031 8.40013 6.80031C8.26679 6.72031 8.10413 6.68031 7.91213 6.68031C7.67746 6.68031 7.49079 6.74431 7.35212 6.87231C7.21346 6.99498 7.13879 7.21365 7.12812 7.52831C7.11213 7.96565 7.11213 8.41365 7.12812 8.87231C7.13879 9.18698 7.21346 9.40831 7.35212 9.53631C7.49079 9.65898 7.67746 9.72031 7.91213 9.72031C8.10413 9.72031 8.26679 9.67765 8.40013 9.59231C8.53879 9.50698 8.64013 9.35498 8.70413 9.13631C8.72546 9.05098 8.75479 8.99498 8.79213 8.96831C8.83479 8.93631 8.89613 8.92031 8.97613 8.92031H10.3281C10.3761 8.92031 10.4161 8.93631 10.4481 8.96831C10.4855 9.00031 10.5041 9.04031 10.5041 9.08831C10.4988 9.41898 10.4268 9.70965 10.2881 9.96031C10.1495 10.2056 9.96013 10.4136 9.72013 10.5843C9.48012 10.7496 9.20546 10.875 8.89613 10.9603C8.59212 11.0403 8.26413 11.0803 7.91213 11.0803Z" fill="#080918"/>
<defs>
<linearGradient id="paint0_linear_2343_255" x1="8" y1="0" x2="8" y2="16" gradientUnits="userSpaceOnUse">
<stop stop-color="#8069F6"/>
<stop offset="1" stop-color="#4B3D90"/>
</linearGradient>
</defs>
</svg>
