<svg width="24" height="25" viewBox="0 0 24 25" fill="none" xmlns="http://www.w3.org/2000/svg">
<path d="M18.8424 18.5813L15.4759 15.2155C16.4517 14.0441 16.9382 12.5416 16.8344 11.0205C16.7305 9.49952 16.0443 8.07708 14.9184 7.04914C13.7925 6.0212 12.3136 5.46689 10.7895 5.50153C9.26529 5.53617 7.81315 6.15709 6.73512 7.23512C5.65709 8.31315 5.03617 9.76529 5.00153 11.2895C4.96689 12.8136 5.5212 14.2925 6.54914 15.4184C7.57708 16.5443 8.99952 17.2305 10.5205 17.3344C12.0416 17.4382 13.5441 16.9517 14.7155 15.9759L18.0813 19.3424C18.1312 19.3923 18.1906 19.432 18.2559 19.459C18.3212 19.4861 18.3911 19.5 18.4618 19.5C18.5325 19.5 18.6025 19.4861 18.6678 19.459C18.7331 19.432 18.7924 19.3923 18.8424 19.3424C18.8923 19.2924 18.932 19.2331 18.959 19.1678C18.9861 19.1025 19 19.0325 19 18.9618C19 18.8911 18.9861 18.8212 18.959 18.7559C18.932 18.6906 18.8923 18.6312 18.8424 18.5813ZM6.09062 11.4315C6.09062 10.4741 6.37453 9.53814 6.90646 8.74206C7.43838 7.94598 8.19443 7.32551 9.07899 6.95911C9.96355 6.59271 10.9369 6.49685 11.8759 6.68363C12.815 6.87042 13.6775 7.33147 14.3546 8.00849C15.0316 8.6855 15.4926 9.54807 15.6794 10.4871C15.8662 11.4262 15.7703 12.3995 15.4039 13.2841C15.0375 14.1686 14.4171 14.9247 13.621 15.4566C12.8249 15.9885 11.889 16.2724 10.9315 16.2724C9.64807 16.271 8.4176 15.7605 7.51006 14.853C6.60252 13.9455 6.09204 12.715 6.09062 11.4315Z" fill="#E2E2E2"/>
</svg>
