<svg width="32" height="32" viewBox="0 0 32 32" fill="none" xmlns="http://www.w3.org/2000/svg">
<mask id="mask0_2249_240" style="mask-type:alpha" maskUnits="userSpaceOnUse" x="0" y="0" width="32" height="32">
<rect width="32" height="32" fill="#D9D9D9"/>
</mask>
<g mask="url(#mask0_2249_240)">
<path d="M27.4721 14.6575V25.1755C27.4721 25.8075 27.2508 26.3447 26.8084 26.7872C26.3657 27.2298 25.8284 27.4511 25.1964 27.4511H6.81838C6.18638 27.4511 5.64916 27.2298 5.20672 26.7872C4.76405 26.3447 4.54272 25.8075 4.54272 25.1755V14.6318C3.98116 14.2267 3.57194 13.6648 3.31505 12.9462C3.05838 12.2273 3.05905 11.4665 3.31705 10.6638L4.63838 6.33648C4.8146 5.79226 5.11349 5.35371 5.53505 5.02082C5.9566 4.68793 6.46027 4.52148 7.04605 4.52148H24.9461C25.5278 4.52148 26.0289 4.67948 26.4494 4.99548C26.8696 5.31126 27.1725 5.74982 27.358 6.31115L28.6977 10.6638C28.9559 11.4683 28.9566 12.2286 28.6997 12.9448C28.4428 13.661 28.0336 14.2319 27.4721 14.6575ZM18.8987 13.7472C19.6461 13.7472 20.2013 13.5246 20.5644 13.0795C20.9277 12.6342 21.0761 12.1559 21.0094 11.6448L20.2094 6.38682H16.9401V11.6268C16.9401 12.1968 17.1323 12.6927 17.5167 13.1145C17.9012 13.5363 18.3618 13.7472 18.8987 13.7472ZM12.9797 13.7472C13.5995 13.7472 14.1036 13.5363 14.492 13.1145C14.8805 12.6927 15.0747 12.1968 15.0747 11.6268V6.38682H11.8054L11.012 11.6962C10.9469 12.1584 11.0973 12.6158 11.463 13.0685C11.829 13.5209 12.3346 13.7472 12.9797 13.7472ZM7.12872 13.7472C7.63627 13.7472 8.06894 13.5718 8.42672 13.2212C8.78449 12.8705 9.00516 12.4317 9.08872 11.9048L9.89005 6.38682H6.97872C6.83338 6.38682 6.71683 6.41893 6.62905 6.48315C6.54149 6.54715 6.47849 6.64326 6.44005 6.77148L5.14138 11.0832C4.94738 11.7165 5.03205 12.3188 5.39538 12.8902C5.75849 13.4615 6.33627 13.7472 7.12872 13.7472ZM24.8864 13.7472C25.6077 13.7472 26.1733 13.4746 26.583 12.9295C26.9928 12.3842 27.0896 11.7687 26.8734 11.0832L25.5414 6.74582C25.4987 6.61759 25.4336 6.52571 25.3461 6.47015C25.2583 6.41459 25.1439 6.38682 25.003 6.38682H22.1311L22.9247 11.9048C23.0094 12.4264 23.2305 12.8638 23.5881 13.2172C23.9458 13.5705 24.3786 13.7472 24.8864 13.7472ZM6.81838 25.5858H25.1964C25.3162 25.5858 25.4145 25.5474 25.4914 25.4705C25.5683 25.3934 25.6067 25.295 25.6067 25.1755V15.5048C25.4683 15.551 25.3425 15.5806 25.2294 15.5935C25.1161 15.6062 25.0016 15.6125 24.8861 15.6125C24.2929 15.6125 23.7713 15.5039 23.321 15.2868C22.8706 15.0699 22.4398 14.7222 22.0287 14.2435C21.6687 14.6606 21.2349 14.993 20.7274 15.2408C20.2198 15.4886 19.6407 15.6125 18.9901 15.6125C18.4303 15.6125 17.9062 15.495 17.4177 15.2602C16.9293 15.025 16.4637 14.6862 16.021 14.2435C15.609 14.6862 15.1424 15.025 14.621 15.2602C14.0995 15.495 13.5797 15.6125 13.0617 15.6125C12.479 15.6125 11.9244 15.508 11.3977 15.2992C10.8713 15.0903 10.408 14.7384 10.008 14.2435C9.4336 14.8177 8.91527 15.1895 8.45305 15.3588C7.9906 15.5279 7.54927 15.6125 7.12905 15.6125C7.01172 15.6125 6.89172 15.6062 6.76905 15.5935C6.64638 15.5806 6.52605 15.551 6.40805 15.5048V25.1755C6.40805 25.295 6.44649 25.3934 6.52338 25.4705C6.60027 25.5474 6.6986 25.5858 6.81838 25.5858Z" fill="#E2E2E2"/>
</g>
</svg>
