<svg width="32" height="32" viewBox="0 0 32 32" fill="none" xmlns="http://www.w3.org/2000/svg">
<mask id="mask0_2249_248" style="mask-type:alpha" maskUnits="userSpaceOnUse" x="0" y="0" width="32" height="32">
<rect width="32" height="32" fill="#D9D9D9"/>
</mask>
<g mask="url(#mask0_2249_248)">
<path d="M5.46787 22.2768V24.8152C5.46787 24.9178 5.51054 25.0118 5.59587 25.0972C5.68143 25.1827 5.77554 25.2255 5.87821 25.2255H26.1215C26.2242 25.2255 26.3183 25.1827 26.4039 25.0972C26.4892 25.0118 26.5319 24.9178 26.5319 24.8152V22.2768H5.46787ZM5.87821 8.90749H9.72954C9.60732 8.71438 9.51709 8.5056 9.45887 8.28115C9.40087 8.05671 9.37187 7.82104 9.37187 7.57415C9.37187 6.68926 9.67876 5.93493 10.2925 5.31116C10.9065 4.68738 11.6569 4.37549 12.5435 4.37549C13.0842 4.37549 13.5842 4.51349 14.0435 4.78949C14.5031 5.06549 14.8988 5.41549 15.2305 5.83949L15.9742 6.83449L16.7179 5.83949C17.047 5.40971 17.4408 5.05827 17.8992 4.78515C18.3579 4.51204 18.8518 4.37549 19.3809 4.37549C20.2733 4.37549 21.0291 4.68482 21.6482 5.30349C22.2673 5.92215 22.5769 6.67816 22.5769 7.57149C22.5769 7.81371 22.5381 8.04527 22.4605 8.26615C22.3832 8.48682 22.2938 8.7006 22.1922 8.90749H26.1215C26.7535 8.90749 27.2909 9.12882 27.7335 9.57149C28.176 10.0139 28.3972 10.5503 28.3972 11.1805V24.8178C28.3972 25.448 28.176 25.9844 27.7335 26.4268C27.2909 26.8695 26.7545 27.0908 26.1245 27.0908H5.87521C5.24521 27.0908 4.70887 26.8695 4.26621 26.4268C3.82376 25.9844 3.60254 25.448 3.60254 24.8178V11.1805C3.60254 10.5503 3.82376 10.0139 4.26621 9.57149C4.70887 9.12882 5.24621 8.90749 5.87821 8.90749ZM5.46787 18.9755H26.5319V11.1832C26.5319 11.0807 26.4892 10.9867 26.4039 10.9012C26.3183 10.8156 26.2242 10.7728 26.1215 10.7728H18.7805L21.4769 14.4152L19.9895 15.5102L15.9742 10.0498L11.9589 15.5102L10.4719 14.4152L13.1269 10.7728H5.87821C5.77554 10.7728 5.68143 10.8156 5.59587 10.9012C5.51054 10.9867 5.46787 11.0807 5.46787 11.1832V18.9755ZM12.5705 8.90749C12.9483 8.90749 13.265 8.77971 13.5205 8.52415C13.7761 8.2686 13.9039 7.95193 13.9039 7.57415C13.9039 7.19638 13.7761 6.87971 13.5205 6.62415C13.265 6.3686 12.9483 6.24082 12.5705 6.24082C12.1928 6.24082 11.8761 6.3686 11.6205 6.62415C11.365 6.87971 11.2372 7.19638 11.2372 7.57415C11.2372 7.95193 11.365 8.2686 11.6205 8.52415C11.8761 8.77971 12.1928 8.90749 12.5705 8.90749ZM19.3782 8.90749C19.756 8.90749 20.0726 8.77971 20.3282 8.52415C20.5838 8.2686 20.7115 7.95193 20.7115 7.57415C20.7115 7.19638 20.5838 6.87971 20.3282 6.62415C20.0726 6.3686 19.756 6.24082 19.3782 6.24082C19.0004 6.24082 18.6838 6.3686 18.4282 6.62415C18.1726 6.87971 18.0449 7.19638 18.0449 7.57415C18.0449 7.95193 18.1726 8.2686 18.4282 8.52415C18.6838 8.77971 19.0004 8.90749 19.3782 8.90749Z" fill="#E2E2E2"/>
</g>
</svg>
